<?xml version="1.0" encoding="utf-8"?>
<!-- Generator: Adobe Illustrator 22.1.0, SVG Export Plug-In . SVG Version: 6.00 Build 0)  -->
<svg version="1.1" id="Layer_1" xmlns="http://www.w3.org/2000/svg" xmlns:xlink="http://www.w3.org/1999/xlink" x="0px" y="0px"
	 viewBox="0 0 24 20.1" style="enable-background:new 0 0 24 20.1;" xml:space="preserve">
<style type="text/css">
	.st0{fill:#FFFFFF;stroke:#8DC540;stroke-width:0.8269;stroke-linecap:round;stroke-linejoin:round;stroke-miterlimit:10;}
	.st1{fill:none;stroke:#8DC540;stroke-width:0.8269;stroke-linecap:round;stroke-linejoin:round;stroke-miterlimit:10;}
	.st2{fill:#8DC540;}
	.st3{fill:none;stroke:#8DC540;stroke-width:0.8269;stroke-miterlimit:10;}
	.st4{fill:#FFFFFF;stroke:#8DC540;stroke-width:0.8269;stroke-miterlimit:10;}
</style>
<g id="pointer-screen">
	<g id="screen_1_">
		<path class="st0" d="M23.6,13.3v2.4c0,0.4-0.4,0.8-0.8,0.8H1.2c-0.4,0-0.8-0.4-0.8-0.8v-2.4"/>
		<path class="st1" d="M0.4,13.3V1.7c0-0.4,0.4-0.8,0.8-0.8h21.6c0.4,0,0.8,0.4,0.8,0.8v11.6"/>
		<rect x="9.2" y="16.5" class="st0" width="5.6" height="3.2"/>
		<line class="st1" x1="23.6" y1="13.3" x2="0.4" y2="13.3"/>
		<line class="st1" x1="16.4" y1="19.7" x2="7.6" y2="19.7"/>
		<circle class="st2" cx="12" cy="14.8" r="0.4"/>
	</g>
	<g id="pointer_1_">
		<g>
			<g>
				<line class="st3" x1="8.5" y1="4.3" x2="10.3" y2="6.1"/>
				<line class="st3" x1="11.9" y1="2.6" x2="11.9" y2="5.2"/>
				<line class="st3" x1="6.8" y1="7.7" x2="9.5" y2="7.7"/>
				<line class="st3" x1="15.2" y1="4.3" x2="13.4" y2="6.1"/>
				<line class="st3" x1="10.3" y1="9.3" x2="8.5" y2="11.1"/>
			</g>
		</g>
		<g>
			<g>
				<g>
					<polygon class="st4" points="14.4,14.3 11.5,7.3 18.5,10.2 15.4,11.3 					"/>
				</g>
			</g>
		</g>
	</g>
</g>
</svg>
