<?xml version="1.0" encoding="utf-8"?>
<!-- Generator: Adobe Illustrator 22.1.0, SVG Export Plug-In . SVG Version: 6.00 Build 0)  -->
<svg version="1.1" id="Layer_1" xmlns="http://www.w3.org/2000/svg" xmlns:xlink="http://www.w3.org/1999/xlink" x="0px" y="0px"
	 viewBox="0 0 20.3 19.8" style="enable-background:new 0 0 20.3 19.8;" xml:space="preserve">
<style type="text/css">
	.st0{fill:none;stroke:#8DC540;stroke-width:0.706;stroke-linecap:round;stroke-linejoin:round;stroke-miterlimit:10;}
</style>
<path class="st0" d="M10.1,0.2c-5.3,0-9.5,4.3-9.5,9.5c0,5.3,4.3,9.5,9.5,9.5c5.3,0,9.5-4.3,9.5-9.5"/>
<path class="st0" d="M6.6,6.3V5.4c0-1.3,1-2.3,2.3-2.3h4.7v3.3c0.4,0,0.7,0.4,0.7,0.8v0.2c0,0.4-0.3,0.8-0.7,0.9
	c-0.1,1.8-1.6,3.3-3.5,3.3s-3.4-1.4-3.5-3.2c-0.4-0.2-0.8-0.5-0.8-1V7.2C5.8,6.7,6.2,6.4,6.6,6.3z"/>
<path class="st0" d="M16.4,16.8V15c0-1-0.8-1.8-1.8-1.8h-2.2l-0.8-1.7 M8.4,11.5l-0.8,1.7h-2c-1,0-1.9,0.8-1.9,1.8v1.8"/>
<path class="st0" d="M17.3,1.4c-0.5-0.3-1-0.4-1.5-0.2c-0.7,0.4-0.8,1.5-0.3,2.4c0.4,0.7,1.1,1.2,1.8,1.1c0.6,0.1,1.3-0.4,1.8-1.1
	c0.5-0.9,0.4-2-0.3-2.4C18.4,1,17.8,1.1,17.3,1.4z"/>
</svg>
