<?xml version="1.0" encoding="utf-8"?>
<!-- Generator: Adobe Illustrator 22.1.0, SVG Export Plug-In . SVG Version: 6.00 Build 0)  -->
<svg version="1.1" id="Layer_1" xmlns="http://www.w3.org/2000/svg" xmlns:xlink="http://www.w3.org/1999/xlink" x="0px" y="0px"
	 viewBox="0 0 50 50" style="enable-background:new 0 0 50 50;" xml:space="preserve">
<style type="text/css">
	.st0{fill:#8DC540;}
</style>
<path class="st0" d="M46.8,13.7c-0.4-0.7-0.8-1.3-1.2-1.9c1.3-0.8,2.2-2.2,2.2-3.9c0-2.5-2-4.6-4.6-4.6c-1.7,0-3.1,0.9-3.9,2.2
	c-0.6-0.4-1.3-0.8-1.9-1.2c1.2-2,3.3-3.3,5.8-3.3C47,1,50,4.1,50,7.8C50.1,10.4,48.7,12.5,46.8,13.7z M47.8,26.1
	c0,5.9-2.3,11.2-5.9,15.3l5.6,5.6c0.4,0.4,0.4,1.1,0,1.6c-0.4,0.4-1.1,0.4-1.6,0L40.3,43c-4,3.7-9.4,5.9-15.3,5.9S13.8,46.6,9.7,43
	l-5.6,5.6C3.7,49,3,49,2.5,48.6c-0.4-0.4-0.4-1.1,0-1.6l5.6-5.6c-3.7-4-5.9-9.4-5.9-15.3C2.2,13.5,12.4,3.3,25,3.3
	S47.8,13.5,47.8,26.1z M25,5.6c-11.3,0-20.5,9.2-20.5,20.5S13.7,46.6,25,46.6s20.5-9.2,20.5-20.5S36.3,5.6,25,5.6z M26.1,30.5v10.4
	c0,0.6-0.5,1.1-1.1,1.1s-1.1-0.5-1.1-1.1V30.5c-2-0.5-3.4-2.3-3.4-4.4c0-0.9,0.2-1.6,0.7-2.3l-4.9-4.9c-0.4-0.4-0.4-1.1,0-1.6
	c0.4-0.4,1.1-0.4,1.6,0l4.9,4.9c0.7-0.4,1.5-0.7,2.3-0.7c2.5,0,4.6,2,4.6,4.6C29.6,28.2,28.1,30,26.1,30.5z M25,23.8
	c-1.3,0-2.3,1-2.3,2.3s1,2.3,2.3,2.3s2.3-1,2.3-2.3C27.3,24.9,26.3,23.8,25,23.8z M6.8,3.3c-2.5,0-4.6,2-4.6,4.6
	c0,1.7,0.9,3.1,2.2,3.9c-0.4,0.6-0.8,1.3-1.2,1.9c-2-1.2-3.3-3.3-3.3-5.8c0-3.8,3.1-6.8,6.8-6.8c2.5,0,4.6,1.3,5.8,3.3
	c-0.7,0.4-1.3,0.8-1.9,1.2C9.9,4.2,8.4,3.3,6.8,3.3z"/>
</svg>
