<svg xmlns="http://www.w3.org/2000/svg" xmlns:xlink="http://www.w3.org/1999/xlink" width="140" height="61" viewBox="0 0 140 61">
    <defs>
        <path id="a" d="M.106.167H61.67V5.75H.106z"/>
        <path id="c" d="M.114.075h27.58v20.58H.114z"/>
    </defs>
    <g fill="none" fill-rule="evenodd">
        <path fill="#1D94B9" d="M4.948 26.388H6.52c1.237 0 2.097-.089 2.58-.266.483-.177.863-.47 1.14-.878.277-.408.415-.901.415-1.48 0-1.005-.389-1.738-1.166-2.199-.566-.342-1.614-.514-3.145-.514H4.948v5.337zM0 16.228h5.248c2.839 0 4.886.261 6.14.785a6.249 6.249 0 0 1 2.97 2.545c.723 1.172 1.086 2.577 1.086 4.214 0 1.815-.475 3.322-1.423 4.524-.948 1.201-2.235 2.038-3.86 2.51-.955.27-2.692.406-5.213.406V42.22H0V16.227zM25.624 26.953c-1.492 0-2.73.527-3.716 1.582-.987 1.054-1.48 2.406-1.48 4.055 0 1.66.502 3.028 1.506 4.1 1.004 1.071 2.239 1.607 3.707 1.607 1.515 0 2.77-.527 3.769-1.581.998-1.054 1.497-2.435 1.497-4.144 0-1.672-.5-3.027-1.497-4.064-.998-1.036-2.26-1.555-3.786-1.555zm5.07-3.958h4.825V42.22h-4.824v-2.032c-.942.895-1.886 1.54-2.833 1.935-.947.395-1.974.592-3.08.592-2.483 0-4.63-.963-6.442-2.89-1.812-1.925-2.718-4.32-2.718-7.182 0-2.969.877-5.401 2.63-7.298 1.753-1.897 3.883-2.845 6.389-2.845 1.153 0 2.235.218 3.247.654 1.012.436 1.948 1.09 2.807 1.961v-2.12zM50.914 25.68l-2.986 2.987c-1.214-1.201-2.315-1.802-3.304-1.802-.542 0-.966.114-1.273.344-.306.23-.46.516-.46.857 0 .26.098.498.292.716.195.218.675.515 1.44.892l1.768.884c1.86.919 3.139 1.855 3.834 2.81.695.954 1.043 2.073 1.043 3.357 0 1.708-.628 3.133-1.882 4.276-1.255 1.143-2.936 1.714-5.045 1.714-2.804 0-5.042-1.096-6.715-3.287l2.969-3.233a6.849 6.849 0 0 0 1.988 1.599c.76.406 1.434.61 2.023.61.636 0 1.148-.154 1.537-.46.389-.306.583-.66.583-1.06 0-.742-.7-1.467-2.102-2.174l-1.626-.813c-3.11-1.566-4.665-3.527-4.665-5.884 0-1.52.586-2.818 1.758-3.896 1.172-1.078 2.671-1.617 4.497-1.617a7.804 7.804 0 0 1 6.326 3.18M66.335 25.68l-2.986 2.987c-1.214-1.201-2.315-1.802-3.305-1.802-.542 0-.966.114-1.272.344-.306.23-.46.516-.46.857 0 .26.098.498.292.716.195.218.674.515 1.44.892l1.767.884c1.862.919 3.14 1.855 3.835 2.81.695.954 1.042 2.073 1.042 3.357 0 1.708-.627 3.133-1.881 4.276-1.255 1.143-2.937 1.714-5.045 1.714-2.804 0-5.042-1.096-6.715-3.287l2.969-3.233a6.849 6.849 0 0 0 1.988 1.599c.76.406 1.433.61 2.023.61.636 0 1.148-.154 1.537-.46.389-.306.583-.66.583-1.06 0-.742-.7-1.467-2.103-2.174l-1.625-.813c-3.11-1.566-4.665-3.527-4.665-5.884 0-1.52.586-2.818 1.758-3.896 1.172-1.078 2.671-1.617 4.497-1.617a7.804 7.804 0 0 1 6.326 3.18"/>
        <g transform="translate(74.25 55.175)">
            <mask id="b" fill="#fff">
                <use xlink:href="#a"/>
            </mask>
            <path fill="#DBDADA" d="M61.67 2.958c0 1.542-13.782 2.792-30.782 2.792S.106 4.5.106 2.958C.106 1.417 13.888.167 30.888.167S61.67 1.417 61.67 2.958" mask="url(#b)"/>
        </g>
        <g transform="translate(91.25 .175)">
            <mask id="d" fill="#fff">
                <use xlink:href="#c"/>
            </mask>
            <path fill="#2C2C2C" d="M13.904 3.822c-5.444 0-10.043 2.996-10.043 6.543s4.6 6.543 10.043 6.543c5.444 0 10.044-2.996 10.044-6.543s-4.6-6.543-10.044-6.543m0 16.833c-3.567 0-6.943-.997-9.507-2.808C1.635 15.896.114 13.239.114 10.365c0-2.874 1.521-5.53 4.283-7.482 2.564-1.81 5.94-2.808 9.507-2.808 3.567 0 6.943.997 9.507 2.808 2.762 1.951 4.283 4.608 4.283 7.482 0 2.874-1.52 5.531-4.283 7.482-2.564 1.81-5.94 2.808-9.507 2.808" mask="url(#d)"/>
        </g>
        <path fill="#FCCE0C" d="M94.093 52.457a5 5 0 1 1-10 0 5 5 0 0 1 10 0"/>
        <path fill="#2C2C2C" d="M89.093 48.457c-2.206 0-4 1.794-4 4 0 2.205 1.794 4 4 4 2.205 0 4-1.795 4-4 0-2.206-1.795-4-4-4m0 10c-3.309 0-6-2.692-6-6 0-3.309 2.691-6 6-6 3.308 0 6 2.691 6 6 0 3.308-2.692 6-6 6"/>
        <path fill="#FCCE0C" d="M126.093 52.457a5 5 0 1 1-10 0 5 5 0 0 1 10 0"/>
        <path fill="#2C2C2C" d="M121.093 48.457c-2.206 0-4 1.794-4 4 0 2.205 1.794 4 4 4 2.205 0 4-1.795 4-4 0-2.206-1.795-4-4-4m0 10c-3.309 0-6-2.692-6-6 0-3.309 2.691-6 6-6 3.308 0 6 2.691 6 6 0 3.308-2.692 6-6 6"/>
        <path fill="#F79922" d="M128.863 53.373H80.946c-5.306 0-9.647-4.34-9.647-9.647V19.02c0-5.306 4.341-9.647 9.647-9.647h47.917c5.305 0 9.646 4.341 9.646 9.647v24.706c0 5.306-4.34 9.647-9.646 9.647"/>
        <path fill="#2C2C2C" d="M80.946 10.623c-4.63 0-8.397 3.767-8.397 8.397v24.706c0 4.63 3.767 8.397 8.397 8.397h47.917c4.63 0 8.396-3.767 8.396-8.397V19.02c0-4.63-3.766-8.397-8.396-8.397H80.946zm47.917 44H80.946c-6.009 0-10.897-4.888-10.897-10.897V19.02c0-6.009 4.888-10.897 10.897-10.897h47.917c6.008 0 10.896 4.888 10.896 10.897v24.706c0 6.009-4.888 10.897-10.896 10.897z"/>
        <path fill="#FEFEFE" d="M85.926 26.453c-1.28 0-2.342.437-3.186 1.31-.844.874-1.266 2.015-1.266 3.425 0 1.439.422 2.603 1.266 3.491.844.889 1.906 1.333 3.186 1.333 1.241 0 2.286-.452 3.135-1.355.848-.903 1.273-2.055 1.273-3.454 0-1.39-.417-2.53-1.251-3.418-.834-.888-1.886-1.332-3.157-1.332zm-4.273-3.336v1.787c.734-.734 1.528-1.285 2.382-1.653a6.86 6.86 0 0 1 2.74-.55c2.114 0 3.91.799 5.39 2.397 1.479 1.598 2.218 3.648 2.218 6.15 0 2.411-.764 4.429-2.293 6.052-1.528 1.623-3.34 2.434-5.434 2.434a6.758 6.758 0 0 1-2.606-.498c-.804-.333-1.603-.876-2.397-1.631v7.638h-4.035V23.117h4.035zM104.924 26.527c-1.263 0-2.314.44-3.154 1.318-.84.878-1.26 2.003-1.26 3.373 0 1.409.414 2.55 1.245 3.424.83.874 1.881 1.31 3.154 1.31s2.332-.441 3.177-1.325c.845-.883 1.268-2.02 1.268-3.41 0-1.39-.415-2.518-1.246-3.387-.83-.869-1.891-1.303-3.184-1.303m-.067-3.827c1.529 0 2.965.383 4.31 1.147a8.28 8.28 0 0 1 3.15 3.112 8.36 8.36 0 0 1 1.131 4.244c0 1.528-.379 2.958-1.138 4.288a8.22 8.22 0 0 1-3.105 3.12c-1.31.748-2.755 1.123-4.333 1.123-2.323 0-4.306-.826-5.949-2.479-1.642-1.652-2.463-3.66-2.463-6.023 0-2.53.927-4.64 2.784-6.328 1.628-1.469 3.499-2.204 5.613-2.204M123.952 26.453c-1.256 0-2.3.444-3.131 1.332-.831.889-1.247 2.028-1.247 3.418 0 1.4.423 2.55 1.269 3.454.846.903 1.887 1.355 3.124 1.355 1.276 0 2.335-.444 3.176-1.333.84-.888 1.261-2.052 1.261-3.491 0-1.41-.42-2.551-1.261-3.425-.841-.873-1.904-1.31-3.19-1.31zm4.273-9.59h4.065v22.454h-4.065v-1.712c-.793.755-1.589 1.298-2.386 1.63a6.687 6.687 0 0 1-2.596.5c-2.092 0-3.901-.812-5.428-2.435-1.527-1.623-2.29-3.64-2.29-6.053 0-2.501.738-4.55 2.215-6.15 1.478-1.597 3.272-2.397 5.384-2.397.972 0 1.884.184 2.737.551.852.368 1.64.919 2.364 1.653v-8.04z"/>
    </g>
</svg>
